<svg xmlns="http://www.w3.org/2000/svg" width="600" height="600" viewBox="0 0 600 600"><rect width="100%" height="100%" fill="#DDDDDD"/><path fill="#999999" d="M157.53 273.965h8.53v52.06h-4.96q-1.16 0-1.93-.38t-1.49-1.28l-27.18-34.7q.21 2.38.21 4.39v31.97h-8.53v-52.06h5.08q.61 0 1.06.06.45.05.79.21.34.17.67.47.32.31.72.81l27.28 34.85q-.1-1.26-.18-2.48-.07-1.23-.07-2.27zm69.77 26.03q0 5.73-1.89 10.6-1.89 4.88-5.35 8.45-3.45 3.56-8.31 5.56t-10.8 2q-5.91 0-10.77-2t-8.33-5.56q-3.47-3.57-5.38-8.45-1.91-4.87-1.91-10.6 0-5.72 1.91-10.6t5.38-8.44q3.47-3.57 8.33-5.56 4.86-2 10.77-2 3.96 0 7.45.92 3.49.91 6.41 2.59 2.91 1.67 5.24 4.07 2.32 2.39 3.94 5.34t2.46 6.41q.85 3.46.85 7.27m-9.9 0q0-4.28-1.15-7.68-1.15-3.41-3.28-5.78-2.12-2.38-5.16-3.64-3.05-1.26-6.86-1.26-3.82 0-6.86 1.26t-5.18 3.64q-2.15 2.37-3.3 5.78-1.15 3.4-1.15 7.68 0 4.29 1.15 7.69t3.3 5.76q2.14 2.36 5.18 3.62t6.86 1.26q3.81 0 6.86-1.26 3.04-1.26 5.16-3.62 2.13-2.36 3.28-5.76t1.15-7.69m45.65-26.03v52.06h-9.72v-52.06zm60.77 0h7.3v52.06h-8.53v-33.62q0-2.02.22-4.36l-15.73 29.56q-1.12 2.12-3.42 2.12h-1.37q-2.31 0-3.42-2.12l-15.91-29.67q.1 1.19.18 2.34.07 1.15.07 2.13v33.62h-8.53v-52.06h7.3q.65 0 1.12.04t.85.18q.37.14.68.47.31.32.59.86l15.59 28.91q.61 1.15 1.14 2.38.52 1.22 1.02 2.52.51-1.34 1.05-2.58t1.15-2.39l15.37-28.84q.29-.54.61-.86.33-.33.7-.47.38-.14.85-.18t1.12-.04m29.84 32.4h16.56l-6.34-17.31q-.46-1.15-.97-2.74-.5-1.58-1.01-3.42-.46 1.84-.97 3.44-.5 1.6-.97 2.79zm13.21-32.4 20.45 52.06h-7.49q-1.26 0-2.05-.63t-1.19-1.57l-3.89-10.62h-21.56l-3.89 10.62q-.29.83-1.11 1.52-.83.68-2.06.68h-7.56l20.49-52.06zm51.48 25.96h17.28v21.06q-3.96 2.92-8.44 4.27t-9.59 1.35q-6.38 0-11.54-1.98-5.17-1.98-8.82-5.51-3.66-3.53-5.64-8.43-1.98-4.89-1.98-10.69 0-5.87 1.91-10.76 1.91-4.9 5.42-8.43 3.51-3.52 8.51-5.47 5.01-1.94 11.24-1.94 3.16 0 5.92.5 2.75.51 5.11 1.39t4.3 2.14q1.95 1.26 3.57 2.77l-2.78 4.39q-.64 1.05-1.69 1.28-1.04.24-2.27-.52-1.18-.68-2.37-1.37-1.19-.68-2.65-1.19-1.46-.5-3.27-.82-1.82-.33-4.2-.33-3.85 0-6.96 1.3-3.12 1.29-5.31 3.71-2.2 2.41-3.39 5.79-1.19 3.39-1.19 7.56 0 4.47 1.28 7.98t3.6 5.94 5.6 3.7q3.28 1.28 7.31 1.28 2.88 0 5.15-.61 2.26-.61 4.42-1.66v-9.43h-6.55q-.93 0-1.46-.52-.52-.52-.52-1.28zm59.47-18.25h-23.11v14.43h18.22v7.46h-18.22v14.72h23.11v7.74h-32.83v-52.06h32.83z"/></svg>